<svg xmlns="http://www.w3.org/2000/svg" enable-background="new 0 0 135 135" viewBox="0 0 135 135" id="hospital"><rect width="128" height="3.16" x="3.5" y="108.813" fill="#7a8490"></rect><rect width="25.094" height="61.166" x="98.815" y="47.627" fill="#cbd0d8"></rect><rect width="26.868" height="2.81" x="98.818" y="44.815" fill="#f28420"></rect><rect width="29.56" height="2.81" x="98.818" y="42.005" fill="#f93"></rect><rect width="26.868" height="2.81" x="9.314" y="44.815" fill="#f28420"></rect><rect width="29.56" height="2.81" x="6.622" y="42.005" fill="#f93"></rect><rect width="2.879" height="66.792" x="98.815" y="42.005" opacity=".1"></rect><rect width="62.628" height="79.59" x="36.186" y="29.203" fill="#dadfe8"></rect><rect width="62.637" height="2.401" x="36.182" y="29.202" opacity=".1"></rect><rect width="65.501" height="3.087" x="34.749" y="26.114" fill="#f28420"></rect><rect width="70.352" height="3.087" x="32.324" y="23.027" fill="#f93"></rect><rect width="21.307" height="19.4" x="56.846" y="89.392" fill="#3cc5ef"></rect><rect width="1.988" height="19.4" x="77.16" y="89.392" fill="#fff"></rect><rect width="1.988" height="19.4" x="55.853" y="89.392" fill="#fff"></rect><rect width="19.319" height="1.824" x="57.841" y="97.253" fill="#fff"></rect><rect width="19.4" height="1.011" x="57.8" y="98.587" fill="#fff" transform="rotate(90 67.5 99.092)"></rect><polygon points="98.815 95.003 98.815 108.793 68.49 108.793 49.087 89.39 85.913 82.102" opacity=".1"></polygon><rect width="36.821" height="7.285" x="49.09" y="82.107" fill="#fff"></rect><rect width="36.821" height="5.447" x="49.09" y="83.026" fill="#f33"></rect><rect width=".702" height="3.286" x="80.891" y="84.106" fill="#fff"></rect><rect width=".702" height="3.286" x="80.891" y="84.106" fill="#fff" transform="rotate(-60 81.243 85.75)"></rect><rect width=".702" height="3.286" x="80.891" y="84.106" fill="#fff" transform="rotate(-120 81.243 85.75)"></rect><rect width=".702" height="3.286" x="53.407" y="84.106" fill="#fff"></rect><rect width=".702" height="3.286" x="53.407" y="84.106" fill="#fff" transform="rotate(-60 53.758 85.75)"></rect><rect width=".702" height="3.286" x="53.407" y="84.106" fill="#fff" transform="rotate(-120 53.758 85.75)"></rect><path fill="#fff" d="M59.5240631 84.4090805h.6049194v2.711319h-.6049194v-1.0665359h-1.078373v1.0665359h-.6049156v-2.711319h.6049156v1.1328201h1.078373V84.4090805zM63.0767174 86.7460556c-.2741318.267662-.6115494.4014893-1.012249.4014893-.4008598 0-.7382736-.1338272-1.012249-.4014893-.274128-.267662-.411274-.6006546-.411274-.9986725 0-.3983383.137146-.7310181.411274-.9986801.2739754-.267662.6113892-.4014893 1.012249-.4014893.4006996 0 .7381172.1338272 1.012249.4014893.274128.267662.4111137.6003418.4111137.9986801C63.4878311 86.145401 63.3508453 86.4783936 63.0767174 86.7460556zM62.8712349 85.7492752c0-.2417831-.0776443-.4478912-.2327805-.6186523-.1551361-.1707535-.3457794-.2559814-.572094-.2559814-.2263107 0-.416954.085228-.5720901.2559814-.1551361.1707611-.2326241.3768692-.2326241.6186523 0 .2417755.0774879.447258.2326241.6167526.1551361.1691818.3457794.2540894.5720901.2540894.2263145 0 .4169579-.0849075.572094-.2540894C62.7935905 86.1965332 62.8712349 85.9910507 62.8712349 85.7492752zM64.6107101 84.9503937c-.0582352.0476608-.0872726.1111069-.0872726.1900177s.0355072.1414032.1066818.188118c.071022.046402.2351532.1013184.4925537.1647644.2572479.0634384.4568863.1584473.5992355.2850189.1421967.1268845.2132111.3115311.2132111.5545731s-.0910568.4403152-.2733383.591507c-.1822815.1511841-.4221649.2269363-.7194901.2269363-.4292679 0-.8157654-.1590805-1.1596527-.4769211l.360611-.4422073c.2922821.2559814.5624695.383812.8107147.383812.1111069 0 .1983795-.023674.2618256-.0716476.0632858-.0479813.0950012-.1123657.0950012-.1938019s-.0336151-.1461411-.1008453-.1941147c-.0673828-.0476608-.2004242-.0962753-.3995972-.1455154-.3154755-.0747986-.5462036-.1723328-.6921921-.2925949-.1461372-.1202545-.2192078-.3090057-.2192078-.566246 0-.2572479.0924835-.45578.2772903-.5956116.1848068-.1395111.4156952-.2092667.6923447-.2092667.1810226 0 .3620377.0309296.5430527.0931168.1808624.0618591.3386841.1499252.4731445.2635574l-.306488.4422073c-.2353058-.1783371-.4783478-.267662-.7291183-.267662C64.7483292 84.8784332 64.6687851 84.90242 64.6107101 84.9503937zM68.3184967 84.6514893c.1900177.1619186.2850189.4100113.2850189.7449036s-.0975266.5798264-.2927475.7348022c-.1953812.1552887-.4933472.2329407-.894043.2329407h-.3607788v.7562637h-.6049118v-2.711319h.9579544C67.8253174 84.4090805 68.1284866 84.4901962 68.3184967 84.6514893zM67.8743973 85.718338c.0722809-.0814285.1085815-.2004242.1085815-.3569794 0-.1562424-.0471878-.267662-.1415634-.3336334-.0943756-.0659637-.2411499-.098793-.440155-.098793h-.345314v.9115601h.4073334C67.6649704 85.8404922 67.8019562 85.7997742 67.8743973 85.718338zM69.0768127 84.4090805h.6049194v2.711319h-.6049194V84.4090805zM71.4968033 84.932724v2.1876755h-.6050797V84.932724h-.7679443v-.5236435h2.1409683v.5236435H71.4968033zM74.4405899 87.1203995l-.252037-.5858231h-1.1364517l-.2520294.5858231h-.6439056l1.1713333-2.711319h.5856628l1.1713257 2.711319H74.4405899zM73.6222992 85.2158508l-.341362.7875137h.6787796L73.6222992 85.2158508zM75.3987045 87.1203995v-2.711319h.6050797v2.1722107h1.1558609v.5391083H75.3987045z"></path><rect width="13.356" height="8.964" x="104.685" y="92.058" fill="#4f4e4d"></rect><path fill="#fff" d="M118.5954971,101.5769196h-14.4664917V91.5021744h14.4664917V101.5769196z M105.2400208,100.4659042
						h12.2444611v-7.8527145h-12.2444611V100.4659042z"></path><rect width="13.356" height="8.964" x="104.685" y="78.584" fill="#4f4e4d"></rect><path fill="#fff" d="M118.5954971,88.1027908h-14.4664917V78.0280457h14.4664917V88.1027908z M105.2400208,86.9917755
						h12.2444611V79.139061h-12.2444611V86.9917755z"></path><rect width="13.356" height="8.964" x="104.685" y="65.109" fill="#4f4e4d"></rect><path fill="#fff" d="M118.5954971,74.6286621h-14.4664917V64.5539246h14.4664917V74.6286621z M105.2400208,73.5176468
						h12.2444611v-7.8527145h-12.2444611V73.5176468z"></path><rect width="13.356" height="8.964" x="104.685" y="51.635" fill="#4f4e4d"></rect><path fill="#fff" d="M118.5954971,61.1545334h-14.4664917V51.0797958h14.4664917V61.1545334z M105.2400208,60.0435219
						h12.2444611v-7.8527145h-12.2444611V60.0435219z"></path><rect width="25.083" height="61.166" x="11.092" y="47.627" fill="#cbd0d8"></rect><rect width="2.879" height="66.792" x="33.302" y="42.005" opacity=".1"></rect><rect width="13.356" height="8.964" x="16.956" y="92.058" fill="#4f4e4d"></rect><path fill="#fff" d="M16.4005909,91.5021744h14.4664879v10.0747452H16.4005909V91.5021744z M29.7560673,92.6131897h-12.244463
						v7.8527145h12.244463V92.6131897z"></path><rect width="13.356" height="8.964" x="16.956" y="78.584" fill="#4f4e4d"></rect><path fill="#fff" d="M16.4005909,78.0280457h14.4664879v10.0747452H16.4005909V78.0280457z M29.7560673,79.139061h-12.244463
						v7.8527145h12.244463V79.139061z"></path><rect width="13.356" height="8.964" x="16.956" y="65.109" fill="#4f4e4d"></rect><path fill="#fff" d="M16.4005909,64.5539246h14.4664879v10.0747375H16.4005909V64.5539246z M29.7560673,65.6649323h-12.244463
						v7.8527145h12.244463V65.6649323z"></path><rect width="13.356" height="8.964" x="16.956" y="51.635" fill="#4f4e4d"></rect><path fill="#fff" d="M16.4005909,51.0797958h14.4664879v10.0747375H16.4005909V51.0797958z M29.7560673,52.1908073h-12.244463
						v7.8527145h12.244463V52.1908073z"></path><g><rect width="1.164" height="13.05" x="42.467" y="95.742" fill="#4f4e4d"></rect><circle cx="43.05" cy="94.653" r="4.167" fill="#f33"></circle><rect width="1.161" height="5.432" x="42.47" y="91.937" fill="#fff"></rect><rect width="1.161" height="5.432" x="42.47" y="91.937" fill="#fff" transform="rotate(-60 43.05 94.653)"></rect><rect width="1.161" height="5.432" x="42.47" y="91.937" fill="#fff" transform="rotate(-120 43.05 94.653)"></rect></g><g><rect width="9.249" height="15.279" x="41.972" y="35.791" fill="#44433f"></rect><path fill="#fff" d="M51.7874794,51.63731H41.4051018v-16.412571h10.3823776V51.63731z M42.5385284,50.5038795h8.1155205
										v-14.14571h-8.1155205V50.5038795z"></path><rect width="9.249" height="1.133" x="41.972" y="42.864" fill="#fff"></rect><rect width="9.249" height="15.279" x="55.908" y="35.791" fill="#44433f"></rect><path fill="#fff" d="M65.7232819,51.63731H55.3409081v-16.412571h10.3823738V51.63731z M56.4743347,50.5038795h8.1155243
										v-14.14571h-8.1155243V50.5038795z"></path><rect width="9.249" height="1.133" x="55.908" y="42.864" fill="#fff"></rect><rect width="9.249" height="15.279" x="69.844" y="35.791" fill="#44433f"></rect><path fill="#fff" d="M79.6590958,51.63731H69.2767181v-16.412571h10.3823776V51.63731z M70.410141,50.5038795h8.1155243
										v-14.14571H70.410141V50.5038795z"></path><rect width="9.249" height="1.133" x="69.843" y="42.864" fill="#fff"></rect><g><rect width="9.249" height="15.279" x="83.779" y="35.791" fill="#44433f"></rect><path fill="#fff" d="M93.594902,51.63731H83.2125244v-16.412571H93.594902V51.63731z M84.3459473,50.5038795h8.1155243
										v-14.14571h-8.1155243V50.5038795z"></path><rect width="9.249" height="1.133" x="83.779" y="42.864" fill="#fff"></rect></g></g><g><rect width="9.249" height="15.279" x="41.972" y="56.914" fill="#44433f"></rect><path fill="#fff" d="M51.7874794,72.7602081H41.4051018v-16.412571h10.3823776V72.7602081z M42.5385284,71.6267776
										h8.1155205V57.4810638h-8.1155205V71.6267776z"></path><rect width="9.249" height="1.133" x="41.972" y="63.987" fill="#fff"></rect><rect width="9.249" height="15.279" x="55.908" y="56.914" fill="#44433f"></rect><path fill="#fff" d="M65.7232819,72.7602081H55.3409081v-16.412571h10.3823738V72.7602081z M56.4743347,71.6267776
										h8.1155243V57.4810638h-8.1155243V71.6267776z"></path><rect width="9.249" height="1.133" x="55.908" y="63.987" fill="#fff"></rect><rect width="9.249" height="15.279" x="69.844" y="56.914" fill="#44433f"></rect><path fill="#fff" d="M79.6590958,72.7602081H69.2767181v-16.412571h10.3823776V72.7602081z M70.410141,71.6267776
										h8.1155243V57.4810638H70.410141V71.6267776z"></path><rect width="9.249" height="1.133" x="69.843" y="63.987" fill="#fff"></rect><g><rect width="9.249" height="15.279" x="83.779" y="56.914" fill="#44433f"></rect><path fill="#fff" d="M93.594902,72.7602081H83.2125244v-16.412571H93.594902V72.7602081z M84.3459473,71.6267776h8.1155243
										V57.4810638h-8.1155243V71.6267776z"></path><rect width="9.249" height="1.133" x="83.779" y="63.987" fill="#fff"></rect></g></g><polygon points="36.175 47.627 36.175 74.363 11.092 49.281 11.092 47.627" opacity=".1"></polygon><polygon points="98.815 29.203 98.815 92.596 36.186 29.968 36.186 29.203" opacity=".1"></polygon><polygon points="123.909 47.627 123.909 108.793 114.337 108.793 98.815 93.271 98.815 47.627" opacity=".1"></polygon><g><path fill="#fff" d="M83.8009262,102.1884613v4.2409363h27.8576889v-10.228363c0-0.9982986-0.8092804-1.807579-1.807579-1.807579
				H91.6750412c-0.56707,0-1.1012726,0.2661209-1.4428482,0.7187653l-3.29422,4.3653564
				c-0.2120209,0.2809601-0.5014572,0.4938965-0.8327866,0.6126785l-1.1067734,0.3967896
				C84.2801285,100.7445526,83.8009262,101.4254074,83.8009262,102.1884613z"></path><rect width="27.858" height="1.173" x="83.801" y="102.483" fill="#f33"></rect><path fill="#3cc5ef" d="M87.1918716,100.6138229h23.4746552v-4.4127808c0-0.4504089-0.3650894-0.8154984-0.8154831-0.8154984
				H91.6741104c-0.2539825,0-0.496048,0.1210403-0.6508179,0.3234177l-3.2937088,4.3671341
				C87.5748138,100.2804718,87.3942642,100.4610367,87.1918716,100.6138229z"></path><circle cx="107.179" cy="98" r="2.121" fill="#f33"></circle><rect width=".554" height="2.591" x="106.902" y="96.704" fill="#fff"></rect><rect width=".554" height="2.591" x="106.902" y="96.704" fill="#fff" transform="rotate(-60 107.18 98)"></rect><rect width=".554" height="2.591" x="106.902" y="96.704" fill="#fff" transform="rotate(-120 107.18 98)"></rect><path fill="#44433f" d="M83.8009415,107.1233749h27.8566895c0.3835602,0,0.694458-0.310997,0.694458-0.694458
						c0-0.3834686-0.3108978-0.694458-0.694458-0.694458H83.8009415c-0.3835602,0-0.694458,0.3109894-0.694458,0.694458
						C83.1064835,106.8123779,83.4173813,107.1233749,83.8009415,107.1233749z"></path><rect width=".753" height="6.357" x="96.4" y="94.866" fill="#fff" transform="rotate(-180 96.776 98.044)"></rect><polygon fill="#fff" points="91.172 100.614 92.117 100.614 94.484 95.386 93.537 95.386" opacity=".2"></polygon><polygon fill="#fff" points="90.192 100.614 90.664 100.614 93.031 95.386 92.557 95.386" opacity=".2"></polygon><polygon fill="#fff" points="100.381 100.614 101.325 100.614 103.692 95.386 102.746 95.386" opacity=".2"></polygon><polygon fill="#fff" points="99.4 100.614 99.873 100.614 102.24 95.386 101.766 95.386" opacity=".2"></polygon><polygon fill="#fff" points="106.444 100.614 107.389 100.614 109.756 95.386 108.809 95.386" opacity=".2"></polygon><polygon fill="#fff" points="105.464 100.614 105.936 100.614 108.303 95.386 107.829 95.386" opacity=".2"></polygon><path fill="#f93" d="M84.5353394 104.2975388c.268837 0 .4867783.2179337.4867783.4867859 0 .2688293-.2179413.486763-.4867783.486763h-.7344131v-.9735489H84.5353394zM110.924202 104.2975388c-.268837 0-.4867783.2179337-.4867783.4867859 0 .2688293.2179413.486763.4867783.486763h.7344131v-.9735489H110.924202z"></path><g><circle cx="90.378" cy="106.429" r="2.459" fill="#333" transform="rotate(-80.783 90.378 106.429)"></circle><circle cx="90.378" cy="106.429" r="1.297" fill="#dadfe8"></circle><circle cx="105.5" cy="106.429" r="2.459" fill="#333" transform="rotate(-80.783 105.5 106.429)"></circle><circle cx="105.5" cy="106.429" r="1.297" fill="#dadfe8"></circle></g></g><g><rect width="2.489" height="15.35" x="10.809" y="93.463" fill="#ab5033"></rect><path fill="#8eae1f" d="M3.5000014,95.3366699c0,2.4785309,1.994215,4.4855423,4.4728284,4.4855423
						c1.6311493,0,3.064744-0.8728943,3.8356752-2.1790543c0.7390413,1.2743073,2.1216145,2.128067,3.7018976,2.128067
						c2.3827915,0,4.313385-1.9305496,4.313385-4.3071213c0-0.5097504-0.0891342-1.0067139-0.2548008-1.4591064
						c0.6435318-0.6562424,1.038641-1.5419006,1.038641-2.52948c0-1.6056366-1.0577736-2.9627762-2.5105019-3.4215088
						c-0.1911774-2.5613708-2.3255472-4.5747528-4.9379377-4.5747528c-1.879571,0-3.5107203,1.044899-4.3454285,2.5868378
						c-0.3758211-0.1401901-0.7773085-0.2102737-1.1977735-0.2102737c-1.9879928,0-3.5870981,1.5992661-3.5870981,3.5871811
						c0,0.974823,0.3885765,1.8668518,1.019352,2.5103836C4.0988884,92.7625427,3.5000014,93.9795303,3.5000014,95.3366699z"></path><path fill="#5f8c10" d="M15.0906191 96.5636444c0 .2867126.2293663.5192795.5161314.5192795.2866879 0 .5192432-.2325668.5192432-.5192795 0-.2867279-.2325554-.5160904-.5192432-.5160904C15.3199854 96.047554 15.0906191 96.2769165 15.0906191 96.5636444zM15.0906191 92.962265c0 .2867126.2293663.5192871.5161314.5192871.2866879 0 .5192432-.2325745.5192432-.5192871 0-.2867279-.2325554-.5160904-.5192432-.5160904C15.3199854 92.4461746 15.0906191 92.6755371 15.0906191 92.962265zM12.3600655 94.5415573c0 .2867126.2293663.5192871.5161324.5192871.2866879 0 .5192423-.2325745.5192423-.5192871 0-.2867203-.2325544-.5160904-.5192423-.5160904C12.5894318 94.0254669 12.3600655 94.254837 12.3600655 94.5415573zM11.0184412 91.1314545c0 .286705.2293653.5192795.5161314.5192795.2866879 0 .5192423-.2325745.5192423-.5192795 0-.2867279-.2325544-.516098-.5192423-.516098C11.2478065 90.6153564 11.0184412 90.8447266 11.0184412 91.1314545zM8.1664495 88.095459c0 .2867126.2293663.5192795.5161314.5192795.2866879 0 .5192423-.2325668.5192423-.5192795 0-.2867279-.2325544-.5160904-.5192423-.5160904C8.3958158 87.5793686 8.1664495 87.8087311 8.1664495 88.095459zM14.0552454 88.4025421c0 .286705.2293653.5192795.5161314.5192795.2866879 0 .5192423-.2325745.5192423-.5192795 0-.2867279-.2325544-.516098-.5192423-.516098C14.2846107 87.8864441 14.0552454 88.1158142 14.0552454 88.4025421zM5.7624583 89.9955597c0 .286705.2293658.5192795.5161314.5192795.2866879 0 .5192428-.2325745.5192428-.5192795 0-.2867279-.2325549-.516098-.5192428-.516098C5.9918242 89.4794617 5.7624583 89.7088318 5.7624583 89.9955597zM11.651598 86.763176c0 .286705.2293663.5192795.5161314.5192795.2866879 0 .5192423-.2325745.5192423-.5192795 0-.2867279-.2325544-.516098-.5192423-.516098C11.8809643 86.2470779 11.651598 86.4764481 11.651598 86.763176zM17.6440563 89.9955597c0 .286705.2293663.5192795.5161304.5192795.2866879 0 .5192432-.2325745.5192432-.5192795 0-.2867279-.2325554-.516098-.5192432-.516098C17.8734226 89.4794617 17.6440563 89.7088318 17.6440563 89.9955597zM5.5558219 95.4419022c0 .2867126.2293658.5192871.5161314.5192871.2866879 0 .5192428-.2325745.5192428-.5192871 0-.2867203-.2325549-.5160904-.5192428-.5160904C5.7851877 94.9258118 5.5558219 95.1551819 5.5558219 95.4419022zM7.4155502 93.1689072c0 .286705.2293658.5192795.5161314.5192795.2866879 0 .5192423-.2325745.5192423-.5192795 0-.2867279-.2325544-.516098-.5192423-.516098C7.6449161 92.6528091 7.4155502 92.8821793 7.4155502 93.1689072zM9.0096035 96.5636444c0 .2867126.2293653.5192795.5161314.5192795.2866879 0 .5192423-.2325668.5192423-.5192795 0-.2867279-.2325544-.5160904-.5192423-.5160904C9.2389688 96.047554 9.0096035 96.2769165 9.0096035 96.5636444z"></path><rect width="2.489" height="15.35" x="121.702" y="93.463" fill="#ab5033"></rect><path fill="#8eae1f" d="M114.3923721,95.3366699c0,2.4785309,1.9942169,4.4855423,4.4728317,4.4855423
						c1.6311493,0,3.064743-0.8728943,3.8356705-2.1790543c0.7390442,1.2743073,2.1216202,2.128067,3.7018967,2.128067
						c2.3827972,0,4.313385-1.9305496,4.313385-4.3071213c0-0.5097504-0.0891266-1.0067139-0.2547913-1.4591064
						C131.1048889,93.3487549,131.5,92.4630966,131.5,91.4755173c0-1.6056366-1.0577698-2.9627762-2.510498-3.4215088
						c-0.1911774-2.5613708-2.3255539-4.5747528-4.9379425-4.5747528c-1.87957,0-3.5107193,1.044899-4.3454285,2.5868378
						c-0.375824-0.1401901-0.7773056-0.2102737-1.1977692-0.2102737c-1.987999,0-3.5871048,1.5992661-3.5871048,3.5871811
						c0,0.974823,0.3885803,1.8668518,1.0193558,2.5103836C114.9912567,92.7625427,114.3923721,93.9795303,114.3923721,95.3366699z"></path><path fill="#5f8c10" d="M125.9829941 96.5636444c0 .2867126.2293625.5192795.5161285.5192795.2866898 0 .5192413-.2325668.5192413-.5192795 0-.2867279-.2325516-.5160904-.5192413-.5160904C126.2123566 96.047554 125.9829941 96.2769165 125.9829941 96.5636444zM125.9829941 92.962265c0 .2867126.2293625.5192871.5161285.5192871.2866898 0 .5192413-.2325745.5192413-.5192871 0-.2867279-.2325516-.5160904-.5192413-.5160904C126.2123566 92.4461746 125.9829941 92.6755371 125.9829941 92.962265zM123.2524338 94.5415573c0 .2867126.2293701.5192871.5161362.5192871.2866898 0 .5192413-.2325745.5192413-.5192871 0-.2867203-.2325516-.5160904-.5192413-.5160904C123.4818039 94.0254669 123.2524338 94.254837 123.2524338 94.5415573zM121.9108124 91.1314545c0 .286705.2293625.5192795.5161285.5192795.2866898 0 .519249-.2325745.519249-.5192795 0-.2867279-.2325592-.516098-.519249-.516098C122.1401749 90.6153564 121.9108124 90.8447266 121.9108124 91.1314545zM119.0588226 88.095459c0 .2867126.2293625.5192795.5161285.5192795.2866898 0 .5192413-.2325668.5192413-.5192795 0-.2867279-.2325516-.5160904-.5192413-.5160904C119.2881851 87.5793686 119.0588226 87.8087311 119.0588226 88.095459zM124.9476166 88.4025421c0 .286705.2293625.5192795.5161285.5192795.2866898 0 .519249-.2325745.519249-.5192795 0-.2867279-.2325592-.516098-.519249-.516098C125.1769791 87.8864441 124.9476166 88.1158142 124.9476166 88.4025421zM116.6548309 89.9955597c0 .286705.2293625.5192795.5161285.5192795.2866898 0 .5192413-.2325745.5192413-.5192795 0-.2867279-.2325516-.516098-.5192413-.516098C116.8841934 89.4794617 116.6548309 89.7088318 116.6548309 89.9955597zM122.5439682 86.763176c0 .286705.2293701.5192795.5161362.5192795.2866821 0 .5192413-.2325745.5192413-.5192795 0-.2867279-.2325592-.516098-.5192413-.516098C122.7733383 86.2470779 122.5439682 86.4764481 122.5439682 86.763176zM128.5364227 89.9955597c0 .286705.2293701.5192795.5161438.5192795.2866821 0 .5192413-.2325745.5192413-.5192795 0-.2867279-.2325592-.516098-.5192413-.516098C128.7657928 89.4794617 128.5364227 89.7088318 128.5364227 89.9955597zM116.4481964 95.4419022c0 .2867126.2293625.5192871.5161285.5192871.2866898 0 .5192413-.2325745.5192413-.5192871 0-.2867203-.2325516-.5160904-.5192413-.5160904C116.6775589 94.9258118 116.4481964 95.1551819 116.4481964 95.4419022zM118.3079224 93.1689072c0 .286705.2293625.5192795.5161285.5192795.2866898 0 .5192413-.2325745.5192413-.5192795 0-.2867279-.2325516-.516098-.5192413-.516098C118.5372849 92.6528091 118.3079224 92.8821793 118.3079224 93.1689072zM119.9019775 96.5636444c0 .2867126.2293625.5192795.5161285.5192795.2866898 0 .5192413-.2325668.5192413-.5192795 0-.2867279-.2325516-.5160904-.5192413-.5160904C120.13134 96.047554 119.9019775 96.2769165 119.9019775 96.5636444z"></path></g></svg>